<?xml version="1.0" encoding="utf-8"?>
<!-- Generator: Adobe Illustrator 24.1.0, SVG Export Plug-In . SVG Version: 6.00 Build 0)  -->
<!DOCTYPE svg PUBLIC "-//W3C//DTD SVG 1.1//EN" "http://www.w3.org/Graphics/SVG/1.1/DTD/svg11.dtd" [
	<!ENTITY ns_extend "http://ns.adobe.com/Extensibility/1.0/">
	<!ENTITY ns_ai "http://ns.adobe.com/AdobeIllustrator/10.0/">
	<!ENTITY ns_graphs "http://ns.adobe.com/Graphs/1.0/">
	<!ENTITY ns_vars "http://ns.adobe.com/Variables/1.0/">
	<!ENTITY ns_imrep "http://ns.adobe.com/ImageReplacement/1.0/">
	<!ENTITY ns_sfw "http://ns.adobe.com/SaveForWeb/1.0/">
	<!ENTITY ns_custom "http://ns.adobe.com/GenericCustomNamespace/1.0/">
	<!ENTITY ns_adobe_xpath "http://ns.adobe.com/XPath/1.0/">
]>
<svg version="1.1" id="Layer_1" xmlns:x="&ns_extend;" xmlns:i="&ns_ai;" xmlns:graph="&ns_graphs;"
	 xmlns="http://www.w3.org/2000/svg" xmlns:xlink="http://www.w3.org/1999/xlink" x="0px" y="0px" viewBox="0 0 108 32"
	 style="enable-background:new 0 0 108 32;" xml:space="preserve">
<style type="text/css">
	.st0{filter:url(#Adobe_OpacityMaskFilter);}
	.st1{fill-rule:evenodd;clip-rule:evenodd;fill:#FFFFFF;}
	.st2{mask:url(#b_1_);fill-rule:evenodd;clip-rule:evenodd;fill:#FFFFFF;}
</style>
<metadata>
	<sfw  xmlns="&ns_sfw;">
		<slices></slices>
		<sliceSourceBounds  bottomLeftOrigin="true" height="31.4" width="107.7" x="0" y="0.6"></sliceSourceBounds>
	</sfw>
</metadata>
<g>
	<defs>
		<filter id="Adobe_OpacityMaskFilter" filterUnits="userSpaceOnUse" x="0" y="0" width="107.7" height="31.4">
			<feColorMatrix  type="matrix" values="1 0 0 0 0  0 1 0 0 0  0 0 1 0 0  0 0 0 1 0"/>
		</filter>
	</defs>
	<mask maskUnits="userSpaceOnUse" x="0" y="0" width="107.7" height="31.4" id="b_1_">
		<g class="st0">
			<path id="a_1_" class="st1" d="M0,0h107.7v31.4H0V0z"/>
		</g>
	</mask>
	<path class="st2" d="M21.4,28.9h-0.2v-0.3h0.2c0.1,0,0.2,0,0.2,0.1C21.5,28.9,21.5,28.9,21.4,28.9z M21.8,28.8
		c0-0.3-0.2-0.4-0.5-0.4h-0.4v1.2h0.3v-0.5h0.1l0.3,0.5h0.3l-0.3-0.5C21.7,29.1,21.8,29,21.8,28.8L21.8,28.8z M21.3,29.9L21.3,29.9
		c-0.4,0-0.8-0.3-0.8-0.9c0-0.5,0.4-0.8,0.8-0.8c0.4,0,0.8,0.3,0.8,0.8C22.1,29.5,21.7,29.9,21.3,29.9z M21.3,27.9
		c-0.6,0-1.1,0.4-1.1,1.1c0,0.7,0.5,1.1,1.1,1.1c0.6,0,1.1-0.4,1.1-1.1C22.4,28.3,21.9,27.9,21.3,27.9z M20.2,17.5
		c-3.1,1-6.9,0.9-9.8-0.4c-0.5-0.3-1.2-0.6-1.4-1.3c-0.1-1.1,1.1-1.7,1.9-2.2c0.5-0.2,1-0.4,1.5-0.5c0.5,0.4,1,0.7,1.5,1
		c-1,0.3-2.2,0.5-2.6,1.6c0.1,0.8,1,1.1,1.7,1.3c2.3,0.6,4.9,0.5,7.1-0.3c0.4-0.2,1.1-0.5,1-1.2c-0.1-0.7-0.8-0.9-1.4-1.2
		c-0.3,0-0.6,0.1-0.9,0.2c-0.2-0.5-0.3-0.9-0.5-1.4c1,0.3,2,0.5,3,0.7v0c-0.2,0-0.4,0.1-0.7,0.2v0c0.6,0.3,1.4,0.8,1.4,1.5
		C21.9,16.8,20.9,17.2,20.2,17.5L20.2,17.5z M14.8,23.3c0.1-1.7,0.1-3.2,0.2-4.9c0.6,0.1,1.1,0,1.6,0l0,0.2l0.2,4.7
		C16.2,23.5,15.5,23.4,14.8,23.3z M15.6,8.1l0.3-0.9h0c0.6,1.7,1.2,3.4,1.9,5.1l-1.3,0l0,0.2l0.2,4.6v0.1c-0.5,0.1-1.1,0.1-1.5,0
		l0-0.1l0.2-4.7v0c-0.4,0-0.8,0-1.2,0L15.6,8.1L15.6,8.1z M20.5,8l-0.1-0.1l-0.1-0.1c-0.8-0.8-1.7-1.6-2.7-2.3
		C17.2,5.2,16,4.3,15.2,5l0,0c-1,0.7-2,1.5-2.9,2.3c-0.1,0-0.1,0.1-0.1,0.1l-0.1,0.1c-2.6,2.3-4.6,4.4-6.2,6.4c0,0-0.1,0.2-0.1,0.2
		c-0.4,0.5-0.8,1.1-1,1.6c0,0.3,0,0.5,0.1,0.6c1.4,2,3.2,4.1,5.5,6.2l1,0.9c1.4,1.3,2.8,2.5,4.3,3.3c0.3,0.2,0.9-0.1,1.2-0.4
		c2.9-2,5.4-4.6,7.3-6.7l0.7-0.8c0.8-1,1.6-1.9,2-2.9c0,0,0-0.1,0-0.1c0-0.2-0.1-0.4-0.3-0.8C25,12.6,23,10.2,20.5,8L20.5,8z
		 M27.7,16.1c-0.6,1.5-1.8,2.7-2.9,4c-2.3,2.5-4.7,4.9-7.4,6.8c-0.5,0.4-1.3,0.7-1.9,0.4c-2-1-3.7-2.8-5.4-4.3c-2-1.9-4-4.1-5.6-6.3
		c-0.2-0.3-0.3-0.7-0.3-1.1c0.2-0.8,0.7-1.4,1.2-2.1c1.8-2.3,4-4.5,6.3-6.5c0.1-0.1,0.1-0.2,0.2-0.2c0.9-0.8,1.9-1.6,2.9-2.3
		c1.1-0.8,2.4-0.1,3.3,0.6c1,0.7,1.9,1.5,2.7,2.3L21,7.4c2.3,2.2,4.5,4.6,6.3,7.1C27.6,15,27.8,15.5,27.7,16.1L27.7,16.1z
		 M31.2,14.7L31.2,14.7c-2.8-1.9-5.3-4-7.7-6.3l-2.6-2.7c-1.1-1.2-2.1-2.5-3.1-3.7l-1.2-1.7c-0.1-0.1-0.3-0.2-0.5-0.3
		c-0.4-0.2-0.7,0-1,0.2L13,3.1C9.6,7.4,5.5,11.4,1,14.4c-0.4,0.3-0.9,0.5-1,1c-0.1,0.4,0.1,0.7,0.3,1c3.6,2.5,7,5.4,10,8.7
		c0.5,0.6,1,1.1,1.5,1.7c0.9,1.2,1.9,2.4,2.8,3.6c0.3,0.3,0.3,0.7,0.7,0.8c0.3,0.1,0.7,0.2,1,0l0.3-0.3c3.7-5.2,8.4-9.9,13.6-13.7
		c0.5-0.5,1.5-0.6,1.5-1.5C31.8,15.3,31.5,15,31.2,14.7L31.2,14.7z M107.7,8.8V4.2H89.6v23.8h18.1v-4.6H96.1v-5h10.6v-4.6H96.1V8.8
		L107.7,8.8L107.7,8.8z M67.8,27.9h18.1v-4.6H74.3v-5h10.6v-4.6H74.3V8.8h11.5V4.2H67.8L67.8,27.9L67.8,27.9z M45.9,27.9h18.1v-4.6
		H52.5v-5h10.6v-4.6H52.5V8.8h11.5V4.2H45.9L45.9,27.9L45.9,27.9z M35.9,27.9h6.6V4.2h-6.6V27.9z"/>
</g>
</svg>
